<svg id="Layer_3" data-name="Layer 3" xmlns="http://www.w3.org/2000/svg" viewBox="0 0 792 1008">
    <defs>
        <style>
            .cls-1 {
                fill: #ffffff;
            }
        </style>
    </defs>
    <title>gsd</title>
    <g id="GET">
        <path class="cls-1" d="M302.47,318l0.31,5.22-1.23,20v28.86L300.93,385v18.12l-0.31,3.38-1.84,3.07-2.45,4-2.77,4-5.22,5.22-3.68,3.38-1.84,1.84-4,2.77-2.15,1.23-4,2.45-6.14,3.07-4.61,1.84-4.3,1.54L250.58,443,246,444.22l-4.91.92-4.61.92-7.06.92-4.3.61-4.61.92-12.28,1.54-4.61.31-9.52-.62-7.06-.61-4.91-.62-4.91-.92-4.61-1.23-10.75-3.07-4.61-1.23-4.61-1.54-6.14-2.15-4-2.15-6.14-3.38-3.69-2.77-4-2.76L125,424.26l-3.69-2.76-3.38-3.07L113,413.51,110,409.83l-3.38-4.61-2.77-4.3L96.13,387.1,94,382.19l-2.15-4.61-1.53-4.91-1.54-5.22-0.92-4.91-0.92-5.22-0.62-4.91-1.23-6.75-0.61-4.91-0.31-4.61v-4.61l0.92-13.82,0.62-2.45L86.61,310l1.23-5.22,1.54-4.91,1.53-5.22,1.54-4.91L94,285.17l2.15-4.91L98.28,275l2.15-4.3,4-5.53,2.76-3.68,3.38-4,3.38-3.68,3.69-3.38,8-6.76,4-3.07,3.69-2.77,3.68-2.45,10.14-5.83,4.61-2.76,5.22-2.15,5.22-1.53,4.91-1.23,11.36-1.84,8.9-1.23,4.61-.92,4.61-.61,7.06-.61,4.91-.31,6.76,0.61,4.61,0.31,7.06,0.92,4.3,0.92,6.75,1.23,4.61,1.23,6.75,2.15,4.61,1.53L265,230.82l4.61,2.76,4,2.76,1.54,0.92,3.38,2.15,3.38,2.46,1.54,1.53,3.38,2.46,1.84,1.53,1.84,2.15v2.15l-0.92,2.15-1.84,2.76-2.77,4L281.9,264l-8.6,8.6-5.53,4.91-3.69,3.07L260.71,283l-2.46,1.84-1.84,1.23-2.46.31-3.38-2.15-4-2.76-4-2.46-4.3-2.45-4.91-2.15-4.91-1.84-5.22-1.23-5.22-.92-14.43-.92h-2.15l-4.91.31-8,.61-4.91,1.23-9.21,4.3-4,2.76-4,3.07-3.38,3.38-3.07,4-2.76,4-2.46,4.3-1.84,4.61L151.4,307l-1.23,4.61-1.84,9.21-0.92,4.91-0.3,5.22v5.22l0.61,7.37,0.92,4.91,1.54,7.06,1.54,4.91,3.07,7.37,2.15,4.3,3.69,5.53,3.07,3.68,5.53,5.22,4,3.07,6.14,3.38,4.61,1.84,9.21,2.15,5.22,0.61,5.22,0.31h4.91l4.91-.61,4.61-.92,16.58-4,4.91-1.84,4.61-2.15,3.07-2.15,0.92-1.84V381l0.31-2.77V373.6l-0.62-9.21v-5.22l-1.22-1.84-3.38-.61h-7.37l-4.91.3-7.06.92-4.91.3h-7.06l-4.91-.3-10.44-1.84-1.84-.61-1.22-1.54-0.62-3.69-0.31-2.46-0.3-4.91,0.3-7.68L191.93,326l-0.62-4.61v-6.45l0.92-3.38,1.53-1.53,3.69-.61,7.67-.92,5.22-.31h14.12l20-.92L269,308.81h4.91l12.59-1.54,4.91-.31,2.46,0.31,4.61,0.92,2.15,1.23,0.61,1.84,0.92,4.3Z"
        />
        <path class="cls-1" d="M513.36,415L513.05,420l-1.23,16.58-0.31,3.07-1.23,2.15L508.75,443l-40.22,1.23h-4.91L447.35,443l-4.91.31-16,1.23-4.91.3H400.37l-16-1.22h-4.91l-26.41,1.53-10.44-.61-3.69-.62-2.15-1.53-0.92-2.15-0.61-3.38-0.62-7.06-0.31-4.91,0.31-4.61v-4.61l1.23-16.27v-4.91l0.31-16.27-0.31-4.91L335,357l-0.31-4.91,0.62-16.58v-26.1l1.23-16.27-0.31-4.91L335.28,272,335,267.05v-7.37l0.61-9.21v-4.61l0.92-16,0.3-4.3,0.92-2.46,1.54-1.23,2.46-.31,4-.61,20,1.23,18.73-.31h4.91l18.42,1.23h4.91l18.42-1.23H436l41.76,0.61,5.22-.31,10.44-.92h7.67l4.3,0.92,1.84,1.53,0.61,2.15,0.62,4v8.29l-0.62,7.68v5.22l0.31,7.67,0.31,4.61L508.14,268l-0.61,3.69-1.23,2.15L504.76,275l-3.69.61h-2.46l-4.91.31-28.87-.61h-4.91l-15.66.61h-4.91l-16-.61-13.82-.92H405l-2.46.31-3.07.61-1.54,1.53-0.3,1.84L397,282.1l-0.61,7.37v4.91l0.3,5.22L397,303l0.62,2.15,1.23,1.53,3.38,0.92,9.82,0.61,9.83-.61H451l34.39-1.84,9.52,0.61,3.38,0.61,1.84,1.53,0.92,1.84,0.31,3.38,0.61,5.22,0.31,5.22v10.13l0.62,7.06-0.62,9.21-0.61,3.69-1.23,2.15-2.15,1.54-3.07.61h-6.14L475.28,357l-4.91-.3-24.56,1.53-19.65-.61h-4.91L409,356.71l-5.22.3-3.68.31-1.54.92-0.92,2.15L397.3,365l-0.92,7.67-0.31,4.91v6.75l0.31,3.07,0.92,2.15,1.23,1.23,3.38,0.31,16.89,0.61h4.91l16.58-1.23,21.8,1.23H467l21.8-1.23h4.61l4.61,0.31L509.06,392l1.84,0.92,1.23,1.84,0.3,3.38Z"
        />
        <path class="cls-1" d="M731.06,246.48l-0.31,4.61,0.31,9.21-0.31,4.91-0.31,2.46-0.61,3.69-0.92,2.15L727.06,275l-3.68.61h-4.91l-9.21-.92-4.91-.31-14.12.92H685.3l-7.67-.61H673l-2.15.31-3.07.92-1.23,1.84-0.31,4L665,299.9v4.91l1.23,18.42L666,328.15l-1.23,18.42-0.3,4.91L665,369.61v28.25L664.43,416l0.3,4.61,1.54,13.82,0.31,4.91L665.66,443l-1.54,1.54-4,.61-5.83-.31-7.67-.92-5.22-.3-13.82.92h-4.91l-13.82-.92-3.69-.31-1.84-.92L602.71,439v-5.22l0.92-12.9,0.31-4.91v-23l0.31-18.42v-4.91l0.3-18.12v-4.91l-1.23-18.42-0.3-4.91V299.9l-0.62-18.12v-4.3L601.48,275l-3.07-.61h-4.61L584,275h-5.53l-8.29-.61-5.22-.31-5.22.31-7.06.31h-4.61l-2.46-.31-3.38-.61-1.84-1.23-1.23-1.84-0.62-3.07v-2.15l-0.3-4.91,0.61-9.21v-4.61l-0.92-11.67,0.31-4.91,0.92-4,1.23-2.15,1.84-.92,3.07-.61h7.06l11.36,0.92h4.91l17.81-1.23h4.91l18.11,1.53h4.91l22.72-1.53,17.81,0.31h4.91l23-.31h22.72l10.13-.61,5.22,0.31,2.46,0.31,3.68,0.61,2.15,1.23,1.53,2.15,0.62,3.68V232l0.3,4.61Z"
        />
    </g>
    <g id="DONE">
        <path class="cls-1" d="M229.51,706.17l-0.21,3.6-0.21,5.08-0.63,3.39L227,723.1l-1.06,3.39-1.27,3.17L223.38,733l-1.27,3.6-1.27,3.17-2.33,4.65-1.69,2.75-3,3.38-2.11,2.33-3.59,3.39L203.49,761l-2.75,2.33-4,3.17L194,768.16l-4.23,2.33L187,771.75l-4.65,1.69-3.17,1.06-3.39.85-3.38.63-12.9,1.91-3.17.21-4.65.42h-3.39l-6.77-.21-5.5-.42h-3.39l-6.77.42-5.29.21-3.6.21-3.17-.21H99l-3.17-.21-9.1-.85L85,776.62,84,775.56l-0.42-2.33-0.21-3.39,0.21-1.69L84,761.81v-3L84.18,754v-3.17l0.21-3.39V744l-0.21-11.21v-3.39l-0.42-11.21L84,715.06l0.21-4.65,0.42-3.17,0.21-3.6v-3.38l-0.42-5.5-0.21-3.59v-1.91L84,685.66l0.85-11.21v-3.39L84.6,659.85v-3.38L84,645.25V637l0.21-3.39,0.64-3.17,0.42-2.33,0.85-1.27,2.33-.64,3.59-.42,3.17-.42,3.39-.21,18.62,0.21h3.39L130.72,626l1.69,0.21h3.81l8.89-.42,3.17-.21h3.39L157,626l6.77,0.42,3.39,0.42,5.5,0.85,3.39,0.63,3.17,0.85,7.61,2.75L190,633.4l3.17,1.69,3,1.69,7,4.87,2.75,2.33,2.54,2.12,4.66,4.44,2.11,2.11L217,655l1.48,2.75,2.33,4.65,1.27,3.17,1.06,3.39,1.27,3.39,1.06,3.38,0.85,3.39,0.85,4.65,0.63,3.39,0.63,3.59,0.42,3.39,0.21,5.08,0.21,3.39Zm-48.23,18.19,1.48-3.17L184,717.6l0.85-3.17,0.85-4.65,0.21-3,0.21-4.87v-6.77l-0.21-3.39-0.64-4.87-0.85-3.17L184,682.48l-1.69-3.17-3.17-4.44-1.06-1.06L176,671.48l-2.33-2.33-2.54-1.91-4.65-2.75-3-1.27-3-.63-3.38-.63-5.29-.21-3.59-.21H143l-4.65-.21-3.17.21-4.65.63-2.33.64-1.06,1.06-0.63,2.54-0.21,1.91-0.21,3.17,0.42,6.35,0.21,3.38,0.42,4.66,0.42,3.38,0.21,3.39V696l-0.21,4.65v10.15l-0.21,3.6-0.21,3.38-0.42,4.66v3l-0.21,4.87,0.21,3.17,0.63,5.08,0.85,2.33,1.27,1.06,2.54,0.21,19.68-1.27,4.86-.21,3.39-.63,3.6-1.06,3.38-1.27,3.17-1.48,2.75-1.9,3.81-3.39,2.12-2.54Z"
        />
        <path class="cls-1" d="M419,703.85l-0.42,4.87-0.42,3.17-1.27,6.35-0.42,4.87L416,726.27l-0.63,3.39-0.85,3.17-2.12,4.44-1.48,3-5.71,9.52-1.9,2.75-2.12,2.75-2.11,2.33-3.39,3.59-2.33,2.11-2.75,2.12-2.54,1.9-3.81,2.54-2.75,1.69-3.17,1.69-3,1.27-4.23,1.69L368,777l-6.77,2.11-3.6,1.06-3.39.85-3.59.85-3.6.63-3.59.21H332.05l-7.19-.42-7-.84-3-.64-3.17-.85-11.42-3.81-3.39-1.06-3.59-1.48-6.77-3L283.4,769l-3.17-1.9L277.47,765l-2.75-2.33-2.54-2.75-2.33-2.75-5.71-5.71L262,748.91l-2.11-2.75-1.69-2.75-1.69-4.23-3.17-9.52-1.27-4.44L251.45,722l-0.63-3.39-0.63-3.17-0.63-4.65-0.21-3.17-0.21-3.59v-3.6l0.21-3.59,0.21-3.81,0.42-3.6,0.63-3.59,0.85-3.6,1.06-3.59,1.06-3.17,1.27-3.39,1.48-4.87,1.48-3.39,0.85-1.9,1.69-3.17,3-4.66,2.11-3,1.06-1.69,2.54-2.54,3.6-3,2.75-2.11,2.75-1.91,6.35-4.23,2.75-1.69,3-1.69,3-1.48,4.44-1.91,3-1.06,3.17-1.06,3.17-.85,8-1.48,3.17-.64,10.58-1.27,6.77-.42,6.35,0.42,5.08,0.21,3.59,0.42,3.6,0.63,3.59,0.85,3.6,0.64,3.38,0.84,3.17,0.85,3.17,1.06,4.44,1.69,3,1.27,7,4,2.75,1.91,2.75,2.11,3.6,3.39,2.33,2.11,2.33,2.33,1.91,2.54,3,4,1.69,2.75,1.48,2.75,1.69,2.75,2.33,4.23,1.69,2.75,1.48,3.17,1.06,3,1.06,4.87,1.27,6.35,0.42,3.6,0.63,3.59,0.42,7.19ZM367.59,728l1.9-3,2.12-4.65,1.27-3.17,1.06-4.87,0.42-3.17,0.42-5.08v-3.6l-0.21-3.59-0.21-3.39-1.27-6.35-0.85-3-2.33-4.65-1.69-2.75-3-3.81-2.12-2.33L360,667.25l-2.33-1.91-5.5-3.17-3-1.27-3.39-1.06-3.39-.63-6.77-.42-3.17.21-4.65.21-3.17.63-5.5,1.48-3.38,1.27-4.87,2.54-3,1.9-3.38,3-2.33,2.54-2.33,3.17-1.69,2.75-0.63,1.27-1.91,4.44-1.06,3.17L294,688.83l-0.63,3-0.42,3-0.21,3-0.21,3.17v3.17l0.21,3.38,0.63,3.39,0.21,1.91,0.85,3.17,0.42,1.48,1.06,3,0.85,1.69,1.69,3,1.06,1.69,2.33,3,1.27,1.48,2.54,2.54,4.23,3.59,3,1.91,3.39,1.69,3.17,1.27,4.44,1.48,3.17,0.63,5.29,0.63,3.59,0.21,5.29-.42,3.39-.42,4.65-1.06,3-1.27,4.65-3,2.54-1.91,3.39-3.38,2.11-2.33Z"
        />
        <path class="cls-1" d="M585.44,659l-0.21,3.39v31.31L585.86,706v3.39l0.42,27.92v3.6l-0.21,1.69-0.21,3.6-0.63,10.15,0.21,12.27-0.21,3-0.85,2.54-1.69,2.33-2.11,1.48-1.91.63-3,.21-10.79.42-3.39.21-5.29.21h-3.38l-2.75-.63-2.54-1.06L545,776l-1.9-2.75L540,767.1,538,764.35,529.8,754l-2.12-2.54-8.25-10.15-1.91-2.75-7.4-11-1.9-2.54L500,714.85l-2.11-2.54L490,701.94l-1.91-1.69-1.48.63L486,703.43,485.59,714v3.39L485.8,728v3.38L486,743.2v3.38l-0.64,11.85,0.21,3.39,1.27,8.46,0.21,3.38-0.63,2.75L485,777.89l-1.48.42-2.54.42-1.69.21-3.59.21-9.73-.21h-3.39l-8.67.42h-3.39l-3.17-.21-2.33-.42-1.69-1.06-0.85-1.48L442,774.08l-0.21-1.48v-3.17l0.42-7,0.21-3.38-0.63-11.21v-3.39l0.42-25.81,0.21-3.38,0.64-11.21,0.21-3.39v-14.6l-0.85-11.21v-3.38l0.85-11.21-0.21-3.39-0.85-11.42L442,642.08v-4.87l0.21-3.17,0.42-3.17,0.42-2.33,0.63-1.48,1.27-.63,2.33-.42,6.35-.42L460,626h15.87l2.54,0.21,1.06,0.85,1.27,1.91,8.89,9.52,2.11,2.54,7.83,10.15,2.11,2.54,7.83,10.37,2.11,2.54,7.62,10.58,1.91,2.54,8,10.16,2.12,2.54L538.9,703l1.69,1.48,1.69,0.21,1.48-1.06v-2.33l-1.48-8.89L542.07,689l0.63-9.1v-3.39l-0.85-12.9v-3.38l0.85-12.9L542.49,644l-0.64-7.83v-5.29l0.64-2.75,0.85-1.69,1.48-.85,2.54-.42h1.9l3.6-.21,9.52,0.63h3.38l7.19-.42,3.17,0.21,4.87,0.21,2.33,0.42,1.48,0.63,1.27,1.48,0.42,3,0.21,1.91,0.21,3.59-0.42,6.56-0.42,3.39Z"
        />
        <path class="cls-1" d="M731.67,758.64L731.45,762l-0.85,11.42-0.21,2.11L729.55,777l-1.06.85-27.71.85H697.4l-11.21-.85-3.39.21-11,.85-3.39.21h-14.6l-11-.84h-3.39l-18.19,1.06-7.19-.42-2.54-.42L610,777.47,609.39,776,609,773.66l-0.42-4.87-0.21-3.38,0.21-3.17v-3.17l0.85-11.21v-3.39l0.21-11.21-0.21-3.39-0.63-11.21-0.21-3.38L609,703.85v-18l0.85-11.21-0.21-3.39L609,660.06l-0.21-3.39V651.6l0.42-6.35v-3.17l0.64-11,0.21-3,0.63-1.69,1.06-.85,1.69-.21,2.75-.42,13.75,0.85,12.9-.21h3.39l12.69,0.85h3.39l12.69-.85h3.38L707.13,626l3.6-.21,7.19-.63h5.29l3,0.63,1.27,1.06,0.42,1.48,0.42,2.75v5.71l-0.42,5.29v3.59l0.21,5.29,0.21,3.17-0.21,3.17-0.42,2.54-0.85,1.48-1.06.85-2.54.42h-1.69l-3.38.21-19.89-.42h-3.38l-10.79.42h-3.38l-11-.42-9.52-.63H657l-1.69.21-2.11.42-1.06,1.06-0.21,1.27L651.49,667l-0.42,5.08v3.39l0.21,3.59,0.21,2.33,0.42,1.48,0.85,1.06,2.33,0.63,6.77,0.42,6.77-.42h20.09l23.7-1.27,6.56,0.42,2.33,0.42,1.27,1.06,0.63,1.27,0.21,2.33,0.42,3.59,0.21,3.6v7l0.42,4.87-0.42,6.35-0.42,2.54-0.85,1.48-1.48,1.06-2.12.42H715l-9.52-1.06-3.38-.21-16.92,1.06-13.54-.42H668.2l-8.46-.63-3.6.21-2.54.21-1.06.63L651.91,721l-0.21,3.18-0.63,5.29-0.21,3.39v4.65l0.21,2.11,0.63,1.48,0.85,0.85,2.33,0.21,11.63,0.42h3.39l11.42-.85,15,0.85h3.39l15-.85h3.17l3.17,0.21,7.61,0.85,1.27,0.63,0.85,1.27L731,747Z"
        />
    </g>
    <g id="STUFF">
        <path class="cls-1" d="M283.57,553l-1.12,2.52-1.12,2.24-1.4,2.24-1.12,2.24-1.4,2.52L276,567l-1.4,2-6.72,7.84-2,2-2,1.68-2,1.4-2.24,1.68-2,1.4L255.29,586,253,587.13l-2.52.84-2,.56-2.52.56-3.36.56-2.8.28-2,.28h-2.8l-2.52-.28h-2.24l-1.68.84-1.4,1.68-1.4,2-2,2-2.52,2.24-2.8,2.24-2.52,1.68L213,604.21l-2.8,1.68L207.69,607l-3.64.84-4.48.84-4.76.28-3.64.28h-2.8l-2.8-.28-2.52-.84-2-.84-2.52-1.12-2.52-1.4-4.2-3.08-2-1.68-2-2-4.2-6.72-0.84-2.52-1.68-7.56-0.28-2.8v-5l0.56-2.8,1.68-3.08,3.36-2.8,4.2-1.12,3.36,0.28,1.68,1.68,0.28,2.24v2.52l-0.28,2.52,0.28,2.52,1.12,5,1.12,2.24,1.4,2.24,1.4,2,1.68,2,2,1.4,2.24,1.12,2.24,0.84,2.52,0.56h2.8l2.24-.28,2.52-.84,2-1.12,2.24-1.68,2-1.68,1.4-2.8v-2.8l-1.4-2-1.68-2.24-1.12-2.24-0.28-2.8,0.28-2.52,1.4-2.52,1.68-1.68,4.2-2.8,1.12-1.4v-2l-0.56-2.52-0.84-2.52-0.84-2.24L208,549.61l-0.56-2.24-0.84-2.52-0.84-2.24-0.84-2.52L204,537.85l-1.12-2.24-0.84-2.24-0.84-2.52-0.84-2.24-0.84-2.52-0.84-2.24-0.84-2.52L197,519.09l-0.84-2.8-1.12-3.36-0.84-3.36-0.84-2.52-0.56-2.52-0.28-2.24-0.28-2.52-0.56-1.68-1.68.56-3.92,3.92-1.68,2-2.8,3.92-1.4,2.24-1.4,2-3.08,5.6-1.68,3.08L173,523.85l-1.4,2-1.12,2.24-1.12,2-1.12,2.24-1.68,3.64L164.85,539l-1.12,2.52L161.21,546l-1.12,2.24L159,550.73l-1.68,3.08L155,556.33l-2.52.56-2.8-1.4-1.4-2.24,0.28-2.52,0.56-2.52,2.24-4.48,1.4-2.52,0.84-1.68L155,537l1.12-2.52,0.84-2.24,3.36-6.72,1.4-2.24,1.12-2.52,1.68-3.08,2-3.08,1.4-2.52,1.4-2.24,1.12-2.24,1.4-2.52,1.12-1.4,1.4-2.52,1.4-2,6.72-7.84,3.36-3.64,1.68-2,2-2,2-1.68,4.48-2.8,2.52-1.12,2.8-.84,2.52-.56,2.24-.28,2.52,0.28,2.52,0.56,2.24,1.4,1.68,2,0.84,2.24v2.52L215.25,488l-1.12,2.24-1.4,2.24-0.56,2.24-0.28,2.52,0.56,3.36,0.84,3.36,0.56,2.8,1.4,3.64,1.4,4.48,1.68,4.48,3.08,7.84,1.12,2.52,1.12,3.36,1.68,3.08,1.12,2.52,0.84,2.24,0.84,2.52,2.52,6.72,0.84,2.52,0.56,3.64,0.56,4.48,0.56,3.64,0.28,2.8v7l0.28,2.24,0.84,1.4,2.24,0.56h2.52l5-.56,5-1.68,2.24-.84,4.48-2.8,2-1.68,3.92-3.64,3.64-3.64,1.4-2,5.6-9,1.12-2.24,1.12-2.52,0.84-2.24,1.4-2.24,2.52-1.68,3.36,0.84,2.52,2.8v2.8l-0.84,2.52Z"
        />
        <path class="cls-1" d="M364.48,545.41v3.08l-1.12,2.8L360,557.45,358.88,560l-1.12,2.24-2.8,4.48-1.12,2-1.4,2.24-2.24,4.2-1.12,2-1.68,2.52L344,583.49l-1.4,2.24-1.4,2-1.68,2L334.24,595l-3.92,3.08-3.92,3.36-2.24,1.68-3.08,1.68-3.36,1.4-2.52,1.12-2.52.84-2.24.56-2.52.28h-7.84l-2.52-.28-2.52-.56L291.68,607l-3.08-1.4-2.24-1.4-3.92-3.36-1.4-2-1.4-2.24-2.24-4.48-0.84-2.24-0.84-2.52-0.56-2.52-0.56-2.24v-2.52l-0.28-2.52v-2.52l-0.28-2.8v-2.52l0.84-7.56v-2.52l1.4-12.6,0.56-2.52,0.28-2.52,1.12-5,0.84-3.64,0.84-3.36,0.56-2.52,0.84-2.52,0.56-2.52,0.84-2.52,0.56-2.52,0.56-3.36,1.12-3.64,1.68-5v-2.24l-0.84-1.4-2-.56-2.24-.28-2.8-.56-2.8-1.12-2-2.52-0.56-2.52-0.28-2.8,0.56-2.24,1.12-2,2-1.4,3.64-.28,4.2,0.28h4.2l2.8-.84,1.12-2,0.56-2.8,0.56-2.24,0.84-2.52,1.12-2.24,1.12-2.52,0.84-2.24,1.68-5,1.12-5,0.84-2.52,1.12-2.24,1.68-5,0.84-2.24,1.12-2.52,0.84-2.52,0.84-2.24,0.84-2.52,1.12-2.24,1.12-2.52,0.56-2.24L312.4,427l1.12-2.52,1.4-2,2.24-1.4,2.52-.56,2.8,0.28,3.36,0.56,3.64,0.84,2.52,1.4,2.24,2,0.84,3.08-0.56,2.52-1.4,3.64-1.68,3.92-1.4,3.64-0.84,2.8-0.56,1.68-0.84,2.8-3.08,9.24-0.84,2.24L323,463.65l-1.12,3.64-1.68,4.2-2,5.88-0.56,2.52-1.12,2.24-0.84,2.24v2l1.68,1.4,3.08,0.56h2.8l4.76-.28,3.92-.28h8.68l3.64,0.28,2,1.68,0.56,3.08v3.64L346,498.93l-1.4,2-2,1.4-2.52.84-2.52.56-2.8.28-7.56.28h-3.08l-2.52-.28H311.28l-1.68,1.12-0.84,2.24-1.12,3.36-1.12,4.48-1.12,4.76-1.4,4.48-1.12,4.76-1.12,4.48-0.84,3.92-0.28,1.68-0.84,3.92L299,546.25l-0.84,2.8-1.12,5-0.28,3.36-0.56,3.64-0.56,5V574l0.56,3.64,0.56,3.36,0.84,2.52,1.12,2.52,1.4,2,3.08,2,3.92,1.68,3.08,0.56H313l3.08-.56,6.72-3.36,7.84-6.72,2-2,1.4-1.68,2.8-3.64,3.64-4.48,1.4-2,1.12-2.24,1.4-2.24,1.68-2.24,1.4-2,1.4-2.24,1.12-2.24,0.84-2.52,1.4-2.8,1.4-2.24,1.68-2.8,3.36-2.24,3.64,0.56Z"
        />
        <path class="cls-1" d="M444.28,490.25l2.8-.28,2.8,0.28,2.52,0.28,2.8,0.56,2.24,0.84,2.24,1.4,1.12,2.24L460,498.93l-2,5.88-2.24,4.48-0.84,2.52-0.56,2.24-0.84,2.52-1.12,2.24-1.12,5-0.84,2.52-0.84,2.24-0.84,2.8-0.84,2.52-0.56,2-0.84,2.52L446,540.65l-0.56,2.52-0.84,2.52-1.68,7.56L442,556.61l-0.84,3.64-0.84,2.8-0.56,3.36-0.56,3.64-0.28,2.8v2.52l-0.28,2.52v2.52l0.56,5,0.84,2.52,1.4,2,2,1.12,2.52,0.28,2.24-.28,2.52-1.12,3.92-2.8,2-2,2-1.68,2-1.4,3.36-3.92,2.8-3.92,1.68-2.24,1.68-2,1.12-2,1.12-2.52,1.4-2.24,1.4-2.52,1.12-1.4,1.68-2.8,1.4-2.8,1.4-3.08,2.52-5,1.68-2.24,2.24-1.4,3.36,0.84,2.24,2.8,0.28,2.8L492.16,551,491,553.25l-1.4,2-1.4,2.24L486,561.93l-0.84,2.52L484,566.69l-2.8,4.48-1.4,2-2.8,4.48-1.4,2-3.36,3.92-1.4,2-1.68,2.24-3.36,3.92L462.2,595l-1.68,1.68L456.6,600l-4.48,2.8-6.72,3.36-5,1.12-2.52.28-3.36-.28-3.36-.84-2.8-1.12-2.52-2.24-2.24-2.52-1.68-2.52-1.4-3.36-1.12-4.48-0.56-4.48-0.28-3.64,0.28-2.8,0.56-2.8-0.28-1.12-0.84,1.4-1.4,2.24-2.8,3.92-1.68,2.24-5,5.88L402,596.37l-1.68,2-2,1.4-2.24,1.4-4.48,2.52-4.48,2.24-2.52.84L374.56,609l-2.52.28-2.52-.28-2.8-.28-2.52-.28-2-.56-2.52-.84-2.24-1.12-3.92-2.8-2-2-2.8-3.92-1.12-2.52-0.84-2.24-0.28-2.52-0.28-2.8v-7.56l0.28-2.52,0.56-2.52L347.4,572l0.56-2.52,0.28-2.52,0.56-3.36,0.84-3.64,1.12-5,0.84-2.52,0.84-3.36,2-5.88,0.84-2.24,0.56-2.52,0.84-2.52,0.28-2.24,3.92-11.76,0.84-2.8,3.08-9.24,0.84-2.24,0.84-2.52,1.4-3.36,0.84-3.36,0.84-2.52,1.12-2.24,2-1.4,2.52-1.12,2.52-.56,2.8-.56,2.52,0.28,2.52,0.56,2.52,0.84,2.24,1.12,1.12,1.68v2.24l-0.56,2.52L390,501.73,389.4,504l-1.68,5-1.12,2.8-0.28,1.68-1.12,3.36-0.84,1.4-0.84,3.08-0.84,2.52-0.84,3.64-1.12,3.64-0.56,1.68L379,535.89l-0.84,2.52-0.56,2.52-0.84,2.24-1.12,5-0.28,2.52-0.56,2.52L374,555.77l-1.12,5-0.56,2.24-0.84,2.52-0.56,2.52-0.84,3.64-0.56,4.48v5l0.56,4.48,2.24,3.92,3.64,2.24,3.36,0.56,5-1.12,2.24-1.12,2-.84,2.24-1.12,2.52-1.4,2.24-1.4,3.92-3.36,1.68-1.68,5-5.88,1.4-2,1.68-2.52,1.68-2.8,2-3.08,2.24-4.48,1.4-2.52,1.12-2.24,1.12-2.52,0.84-2.24,0.84-2.52,0.84-2.24,0.84-2.52,0.84-2.24,1.12-2.52,0.84-2.24,1.12-5,0.84-2.52,0.84-2.24,0.84-2.52,0.84-2.24,1.12-2.52,0.56-2.52,0.56-2.24,1.68-5,0.84-2.24,1.68-5,0.56-2.24,0.84-2.52,1.12-2.24,1.4-2.24,2-1.4Z"
        />
        <path class="cls-1" d="M661.84,540.09v3.36L661,546l-0.84,2.24L659,550.73,657.92,553l-1.4,2-2.8,4.48-1.12,2.24-1.68,2-1.4,2.24-1.68,2-1.68,1.68-2.24,2-1.12,1.12-2.52,2-2,1.4-2.24,1.12-2.52,1.4L631,579.57l-2,.84-2.24.84-3.08.84-2.24.28-2.24.56-2.52.28H603.88l-2.8-.28-2.52.28-0.84,1.68,1.12,2.24,2,2.24,1.68,3.08,2,2.8,1.4,2.24,1.12,2.24,1.12,2.52,0.84,2.24,1.12,5,0.56,2.24,0.28,2.52,0.28,2.8,0.28,3.36,0.28,3.64v5.32l-0.28,2.52-0.28,3.64-0.28,3.36-0.56,2.8L610,644.25l-0.28,2.24L609.2,649l-0.84,2.52-0.56,2.24L607,656.29l-1.12,2.24L605,661.05l-1.68,3.08-1.4,3.08-1.4,2.52L599.4,672l-1.68,2-1.4,2.24-1.68,2-2,1.68-1.68,2-2.52,1.68-2.24,1.12-2,1.12-2.24.84-5,1.68-5,.56-2.52-.28-5-1.12-2.24-.84-4.48-2.8-1.68-2-1.68-2.24-2.24-4.48-0.84-2.52-0.84-2.24-0.56-2.52-0.56-5,0.28-2.52V647.33l0.28-2.8,0.28-2.52v-2.52l0.84-7.56,0.28-2.8,0.28-2.24,0.56-2.52,0.28-2.52,0.28-2.8,0.84-7.56,1.12-5,0.28-2.8,1.68-9.24,0.56-3.64,0.56-1.68,0.84-3.64,0.56-3.08,0.28-3.08,0.84-3.36,0.56-2.52,0.56-2.8,0.56-1.68,0.56-2.8,0.84-2.52,0.56-2.52,0.28-2-0.84-.56-1.68.84-4.48,2.8-2,1.12-3.08,1.4-6.16,3.08-2.24,1.4-2.52,1.12-2.24.84-2.8,1.12-1.68.56L531.36,574l-1.68.56-2.8,1.12-2.24,1.12-2.52.84-5,1.12-2.24.84-2.8.28-1.68.56-0.28.84,1.12,1.12,2.24,2,1.68,1.68,1.68,2.24,1.68,2,1.4,2.24,1.12,2.24,1.4,2.24,2.24,4.48,1.68,5,0.56,2.24,0.56,2.52L528,614l0.56,5v12.88l-0.56,2.8-0.28,2.52-1.12,5-0.28,2.52-1.12,5-0.84,2.52-1.12,5-1.12,2.52L521,662.17l-0.84,2.52-1.4,2.24-1.12,2-1.4,2-1.68,2.24-2.8,3.92-1.68,2-2,1.68-2,1.4-2.52,1.4-1.4,1.12-2.52,1.4-2.8.84-2.24.84-2.24.28-2.24.56h-5l-2.52-.56-4.2-1.68-2.52-1.12-2-1.4-2-2.24-3.92-5.6L467,673.37l-0.84-2.52-0.56-2.24-0.28-2.52v-6.44l0.28-3.36v-7.84l0.28-3.36,0.28-3.64,0.28-2.8L467,635l0.84-4.48,0.28-3.64,0.28-2.8,0.56-3.36,0.28-3.64,0.28-2.8,0.56-3.64,0.84-4.48,0.84-3.64L472,600l1.12-5,0.84-3.64,0.56-3.36,0.56-2.52,0.28-2.52,0.84-2.52,0.84-3.36,0.56-3.36,0.84-2.8,0.56-3.36,0.84-3.64,0.84-2.8,1.68-6.72,0.56-2.8,0.56-2.52,0.84-2.52,0.84-3.64,1.12-3.36,0.84-2.8,0.56-2.24,0.56-2.52,0.84-2.52,0.84-2.24,1.68-7.56,1.12-2.8,0.84-3.08,1.12-3.64,0.84-2.52,0.56-2.52,0.84-2.52,0.56-2.52,0.84-2.24,1.68-5,0.84-2.24L502,488l0.84-2.24,0.84-2.52,1.68-4.76,0.84-2.24,0.84-2.52,2.24-4.48,0.84-2.52,0.84-2.24L512,462l0.84-2.24,1.12-2.24,1.12-2.52,2.24-4.48,1.4-2.24,4.48-9,1.4-2.24,1.4-2,1.4-2.24,1.12-2.24,5-5.88,2-1.68,6.16-4.2,2.24-1.4,2.24-1.12,2.52-1.12,2.24-.84,2.52-.56,2.52-.28h2.52l2.52,0.28,2.52,0.56,2.52,0.84,4.48,2.24,2,1.68,1.68,1.68,2.8,4.48,0.84,2.24,1.12,5v2.52l0.28,2.52-0.28,2.8-0.56,5-1.12,5-0.84,3.36-1.12,3.36-1.12,5-1.12,2.52L572.24,467,570,471.49,569.16,474l-2.24,4.48-0.84,2.24L565,483.25l-1.12,2.24-3.36,5.32-1.68,2.8-1.4,2.52-1.68,2-1.4,2-1.68,2-1.4,2-1.4,2.24-10.36,10.36-2.24,2-1.68,1.4-1.68,1.68-2.8,2.24-1.12.84-4.2,3.64-2.24,1.4-2,1.12-2.24,1.4-2.24,1.12-4.2,2.8L508.4,539l-1.68,2.8-1.4,4.2-1.12,4.48-1.12,4.76-1.12,4.2-1.12,3.64-0.56,2.52L500,568.65l0.84,2,2,0.28,2.52-.56,5.88-1.4,3.36-1.12,2.8-.84,4.48-1.4,5.6-1.68,3.36-1.12,8.12-3.36,13.44-6.72,4.48-2.8,2-1.12,2.24-1.4,2.24-1.12,2.24-1.4,2-1.4,1.4-1.68,0.84-2.24,1.12-5,0.84-2.24,0.84-2.52,0.56-2.24,0.84-2.8L574.2,523l0.84-2.8,0.84-2.24,0.84-2.52,1.12-5,1.12-3.36,1.4-3.36,0.84-2.52,0.84-2.24,0.56-2.52,0.84-2.24,0.56-2.52,1.4-3.36,2.8-8.4,1.12-2,0.84-2.24,0.84-2.52,1.12-2.24,0.84-2.52,2.8-6.72,1.12-2.52,1.68-3.08,1.4-3.36,0.84-2.52,1.12-2.52,1.12-2,1.4-2.24,3.36-6.72,2-3.08,2-2.8,3.64-3.64,1.68-2,1.68-1.68,2-1.68,1.68-1.4,2.24-1.4,3.36-1.68,3.08-1.4,2.52-1.12,2.24-.56,2.8-.28H642l3.36,0.56,3.08,0.84,1.68,0.56,2.52,1.4,2.8,2.24,2.24,2.52,1.68,2.24,1.12,2,2,5.88,0.56,3.36,0.56,5-0.56,5-1.12,5L661.56,453,661,455.53l-0.84,2.52-1.4,3.36-2.24,5.88L653.16,474l-1.4,2.24-1.68,3.08-2,3.08-1.4,2.24-1.12,2.24-2.8,4.48-2.8,3.92-1.68,2-1.4,2-1.68,2-2,2.24-1.12,1.4-1.68,2.24-2,1.68-1.68,2-2,1.4-5.32,5.32-1.68,2L614,522.73l-3.36,3.36-2,1.68-2,1.4-2.24,1.68-1.68,1.68-2,1.4-8.12,5.6-2,1.68-1.4,2-0.84,2.52-0.84,3.64-1.12,4.2-0.84,3.64-0.84,2.52L584,561.93l-1.12,5,0.28,2,1.12,1.68,2,0.84,2.52,0.28h2.8l7.56,0.84,2.8,0.28h7.56l2.52-.28,2.24-.28,2.52-.56,3.08-.84,2.24-.84,4.76-2,4.48-2.24,2.24-1.4,2.52-2,1.4-1.12,2.24-2,1.68-2,1.4-2.24,3.36-3.92,1.4-2.24,1.4-2,1.68-2.52,3.36-6.16,2.8-2.24,3.08,0.84ZM507.28,645.93l1.4-8.4,0.84-3.36,0.56-2.52,0.28-2.52v-2.24l0.28-2.52v-2.8l-0.28-3.36-0.28-3.64L508.4,607l-1.12-3.36-1.68-4.48-2-4.2-2-3.08L500,589.65l-2.52-1.4-2,.56-1.12,2.8-1.68,7.56-0.56,2.24-0.84,2.52-0.56,2.52L490.48,609l-0.56,2.52-0.28,2.24-0.56,2.52v2.52l-1.12,5-0.56,5-0.56,2.52L486,638.93l-0.56,3.64v8.68l-0.56,5v2.52l0.28,2.8,0.28,2.52,0.84,2.52,1.4,2.24,1.68,1.68,2.52,0.28,2.52-.56,2.24-1.4,1.68-1.68,1.68-2,1.4-2.24,1.12-2.52,1.4-2.24,1.68-5,0.56-2.24Zm31.08-197.12-1.12,2.52-1.4,3.36-1.4,3.08-1.12,2.52-1.12,2.24-0.56,2.52-0.84,2.24-0.84,2.8-0.56,1.68-1.12,2.8-1.4,3.36-2,5.88-0.84,2.24L523,488.57l-1.4,3.36-1.12,3.36-1.12,2.52-1.68,5-0.84,3.36-2,5.88-0.56,2.52-1.12,2.52-0.28,2.52,1.4,0.84,3.08-2,2.8-2.24,2-1.68,1.68-2,1.68-1.68,1.68-2,1.68-1.68,3.36-3.92,2.24-2.52,2.24-2.8,2-2.24,1.68-3.08,2-2.8,1.68-2.52,1.4-3.08,1.68-3.08,1.4-2.52,1.4-2.8,1.4-3.08,1.12-2.8,1.12-2.24,1.12-2.8,0.56-1.68,0.84-2.8,0.84-3.64,0.84-3.36,0.56-2.52,0.84-2.24,1.12-5,0.28-2.52v-2.52l-0.28-2.24-0.84-2.24-2-1.68-2.24-.84-2.24.28-2.24,1.12-2.24,1.4-2.52,2.52-2.24,2.8L542,442.09l-2.24,4.48Zm52.36,197.68,0.84-3.64,0.84-3.36,1.68-7.56,0.56-5v-2.52l0.28-2.52v-4.76l-0.28-2.52-1.12-5-0.28-2.24-1.68-5-1.4-3.08-1.68-3.08-2.8-4.48-2-2-2.52-1.4-2.24.84-1.12,2.8-0.56,2.8L577,597.21l-0.84,2.24L574.48,607l-0.28,2.52-0.56,2.52-0.28,2.24-0.56,2.52v2.52l-1.68,7.56-0.84,7.56-0.56,2.24-0.28,2.52v2.52l-0.28,2.8-0.28,2.52v5l-0.56,5v2.52l0.28,2.8,0.28,2.52,0.84,2.24,1.12,2.24,2,1.4,2.52,0.28,2.52-.84,2.24-1.12,1.68-1.68,1.68-2,1.4-2.24,2.24-4.48,1.12-2.52,0.56-2.52,0.84-2.24Zm30.8-196L619,455.81l-1.4,3.08-1.12,2.24-0.84,2.52-0.84,2.24-1.68,5-0.84,2.24-1.12,2.52-1.4,3.36-1.12,3.36-1.12,2.52-1.68,5-1.12,2.24-0.84,2.24L602.76,497l-0.84,2.24-0.56,2.52-0.84,2.52-0.84,2.24L598.84,509l-0.56,2.52-0.84,2.24-0.56,2.52-1.12,2.52-0.28,2.8,0.84,0.56,2.24-1.4,2-1.68,5.32-5.32,1.68-2,2-2.24,1.12-1.12,2-2.24,1.68-2.24,6.44-7.28,1.4-2.24,1.68-2.52,2-2.8,1.68-2.8,1.12-2.52,2.8-4.48,1.68-3.08,3.92-7.84,1.12-2.8,0.56-1.68,0.84-2.8,0.84-3.64,0.84-3.36,0.84-2.52,0.56-2.52,0.84-2.52L644.2,439l-0.28-2.52L642.8,434l-1.68-1.4-2.52-.84-2.24.28-2.24,1.12-3.92,3.36-1.68,2-1.4,2.24-1.4,2-1.4,2.24-1.12,2.52Z"
        />
    </g>
</svg>